<?xml version="1.0" encoding="UTF-8"?>
<!DOCTYPE svg PUBLIC "-//W3C//DTD SVG 1.1//EN" "http://www.w3.org/Graphics/SVG/1.1/DTD/svg11.dtd">
<!-- Creator: CorelDRAW X7 -->
<svg xmlns="http://www.w3.org/2000/svg" xml:space="preserve" width="750px" height="300px" version="1.1" style="shape-rendering:geometricPrecision; text-rendering:geometricPrecision; image-rendering:optimizeQuality; fill-rule:evenodd; clip-rule:evenodd"
viewBox="0 0 750 300"
 xmlns:xlink="http://www.w3.org/1999/xlink">
 <defs>
  <style type="text/css">
   <![CDATA[
    .fil3 {fill:#5F6261}
    .fil2 {fill:#333735}
    .fil1 {fill:#2EB454}
    .fil0 {fill:#0E9551}
    .fil5 {fill:#373435;fill-rule:nonzero}
    .fil4 {fill:#0E9551;fill-rule:nonzero}
   ]]>
  </style>
 </defs>
 <g id="Layer_x0020_1">
  <metadata id="CorelCorpID_0Corel-Layer"/>
  <path class="fil0" d="M24 108c22,-35 67,-46 102,-25 9,6 17,14 23,23l-41 10c-3,0 -4,3 -4,5l0 0c1,3 3,4 6,4l44 -11c1,4 3,8 4,12l-35 9c-2,0 -3,3 -3,5l0 0c1,2 3,4 6,3l34 -8c1,4 1,8 1,12l-21 5c-2,0 -4,3 -3,5l0 0c1,2 3,4 5,3l18 -4c-1,10 -4,20 -10,29 -21,35 -66,46 -101,24 -35,-21 -46,-66 -25,-101z"/>
  <path class="fil1" d="M141 114c-18,-30 -57,-39 -86,-21 -7,4 -13,10 -17,16l29 7c2,0 4,3 3,5l0 0c0,3 -3,4 -5,4l-33 -8c-2,4 -3,8 -5,12l24 6c3,0 4,3 4,5l0 0c-1,2 -4,4 -6,3l-24 -5c0,3 0,7 0,11l9 3c3,0 4,3 4,5l0 0c-1,2 -3,4 -6,3l-6 -1c2,7 4,14 8,20 18,29 56,39 86,21 29,-18 39,-57 21,-86z"/>
  <path class="fil2" d="M878 48c25,-40 77,-52 117,-28 11,7 19,15 26,25l-47 12c-3,1 -5,3 -4,6l0 0c1,3 3,5 6,4l50 -12c3,4 4,9 6,14l-40 10c-3,0 -5,3 -4,6l0 0c1,3 4,4 6,4l40 -10c1,4 1,9 1,13l-24 6c-3,1 -4,4 -4,6l0 0c1,3 4,5 7,4l20 -5c-1,12 -5,23 -11,33 -25,40 -77,53 -117,29 -40,-25 -52,-77 -28,-117z"/>
  <path class="fil3" d="M1012 55c-21,-34 -65,-45 -99,-24 -8,5 -14,11 -20,18l34 8c3,1 5,3 4,6l0 0c-1,3 -4,5 -6,4l-38 -9c-2,4 -4,9 -5,14l27 7c3,0 4,3 4,6l0 0c-1,3 -4,4 -7,4l-27 -7c0,5 0,9 0,14l11 2c2,1 4,4 3,6l0 0c0,3 -3,5 -6,4l-7 -1c2,7 5,15 9,23 21,33 65,44 99,24 34,-21 44,-65 24,-99z"/>
  <path class="fil4" d="M200 193l12 0c3,0 6,0 6,-5 0,-3 -2,-5 -5,-5l-6 0 -3 -6 6 -5c6,-5 8,-9 8,-17l0 -26c0,-8 -5,-13 -12,-13 -4,0 -6,1 -9,4l-20 17c-6,5 -8,9 -8,17l0 26c0,4 0,7 3,10 2,2 6,3 9,3 4,0 6,-1 9,-3l7 -6 3 9zm-1 -28c-1,-3 -1,-7 -5,-7 -3,0 -5,2 -5,5 0,2 0,3 1,5l3 6 -9 8c-1,1 -2,1 -3,1 -2,0 -2,-1 -2,-3l0 -26c0,-4 1,-6 4,-9l20 -18c1,0 2,-1 3,-1 2,0 2,2 2,4l0 25c0,6 0,7 -5,11l-2 2 -2 -3zm90 -19c0,-3 -1,-6 -5,-6 -4,0 -5,3 -5,6l0 28 -14 9c-1,1 -2,1 -3,1l-3 0c-2,0 -5,-1 -5,-2 -1,-2 -1,-4 -1,-6l-1 -30c-1,-3 -1,-6 -5,-6 -5,0 -5,3 -5,7l1 30c0,5 0,9 4,13 4,3 7,3 9,3l7 0c3,0 6,-1 9,-3l8 -5 0 2c0,3 0,6 4,6 5,0 5,-4 5,-7l0 -40zm65 47c3,0 7,0 7,-4 0,-4 -3,-5 -7,-5l-20 0c-3,0 -5,-1 -7,-2l-2 -3c-1,0 -1,-1 -1,-2l0 -4 30 0c6,0 7,-1 7,-7l0 -7c0,-6 -1,-9 -5,-13l-4 -3c-4,-3 -6,-3 -10,-3l-9 0c-4,0 -6,0 -11,4l-3 2c-4,4 -5,7 -5,12l0 18c0,6 1,8 5,11l4 4c3,2 5,2 9,2l22 0zm-30 -36c0,-3 0,-3 2,-4l3 -3c2,-1 3,-1 5,-1l8 0c1,0 3,0 5,1l3 4c2,1 1,2 1,4l0 6 -27 0 0 -7zm93 -8c3,0 4,0 6,2 1,1 2,2 4,2 3,0 5,-2 5,-5 0,-2 -2,-4 -4,-5 -3,-3 -6,-3 -11,-3l-16 0c-8,0 -14,4 -14,12 0,6 4,9 9,11l22 11c3,1 5,2 5,5 0,5 -4,5 -8,5l-13 0c-3,0 -6,0 -7,-2 -1,-1 -2,-2 -4,-2 -3,0 -5,2 -5,5 0,2 3,4 4,5 4,3 7,3 12,3l15 0c9,0 16,-4 16,-14 0,-7 -3,-11 -9,-13l-24 -11c-2,-1 -3,-2 -3,-3 0,-3 3,-3 5,-3l15 0zm60 0l16 0c3,0 7,0 7,-5 0,-4 -3,-4 -7,-4l-16 0 0 -10c0,-4 0,-7 -4,-7 -5,0 -5,3 -5,7l0 10 -3 0c-4,0 -7,0 -7,4 0,5 4,5 7,5l3 0 0 26c0,5 0,10 3,14 4,3 8,4 13,4l5 0c5,0 9,0 13,-4 1,-2 3,-6 3,-8 0,-3 -2,-5 -5,-5 -2,0 -4,1 -5,4 -1,4 -2,4 -6,4l-5 0c-7,0 -7,-3 -7,-9l0 -26zm53 23c0,4 0,6 3,9l6 5c3,3 5,3 7,3l12 0c2,0 5,-2 7,-4l2 -2 0 13c0,2 0,3 -1,4l-2 2c-2,1 -3,2 -5,2l-18 0c-3,0 -6,1 -6,5 0,4 3,5 6,5l16 0c6,0 8,-1 12,-4l3 -3c4,-3 5,-5 5,-14l0 -47c0,-3 0,-6 -5,-6 -3,0 -5,2 -5,5l0 1 -2 -2c-4,-3 -7,-4 -9,-4l-10 0c-2,0 -4,0 -6,2l-7 5c-2,2 -3,6 -3,10l0 15zm10 -14c0,-2 0,-4 1,-5l4 -3c1,-1 1,-1 3,-1l7 0c1,0 2,1 4,3l7 6c1,0 1,2 1,3l0 7c0,1 0,3 -1,3l-7 6c-2,2 -3,3 -4,3l-7 0c-2,0 -2,-1 -3,-1l-4 -3c-1,-1 -1,-3 -1,-5l0 -13zm102 35c3,0 7,0 7,-4 0,-4 -3,-5 -7,-5l-20 0c-3,0 -5,-1 -7,-2l-2 -3c-1,0 -1,-1 -1,-2l0 -4 30 0c6,0 7,-1 7,-7l0 -7c0,-6 -1,-9 -5,-13l-4 -3c-4,-3 -6,-3 -10,-3l-9 0c-4,0 -6,0 -11,4l-3 2c-4,4 -5,7 -5,12l0 18c0,6 1,8 5,11l4 4c3,2 5,2 9,2l22 0zm-30 -36c0,-3 0,-3 2,-4l3 -3c2,-1 3,-1 5,-1l8 0c1,0 3,0 5,1l3 4c2,1 1,2 1,4l0 6 -27 0 0 -7zm86 -7c1,-1 2,-1 3,-1l3 0c6,0 6,2 7,8l1 30c0,3 0,6 4,6 5,0 5,-3 5,-7l-1 -30c0,-5 0,-9 -4,-13 -3,-2 -5,-3 -9,-3l-7 0c-3,0 -6,1 -9,3l-7 5 0 0 0 -1c0,-4 -1,-7 -5,-7 -5,0 -5,3 -5,7l0 40c0,3 1,6 5,6 4,0 5,-3 5,-6l0 -28 14 -9z"/>
  <path class="fil5" d="M887 -1084l11 0c4,0 7,-1 7,-5 0,-3 -3,-5 -6,-5l-6 0 -2 -6 6 -5c6,-5 8,-10 8,-17l0 -27c0,-7 -5,-13 -13,-13 -3,0 -6,2 -8,4l-21 18c-5,4 -8,9 -8,16l0 26c0,4 1,7 3,10 3,3 6,4 9,4 4,0 6,-1 9,-4l7 -5 4 9zm-1 -29c-1,-3 -2,-6 -6,-6 -3,0 -5,2 -5,5 0,1 1,3 1,4l3 7 -9 7c0,1 -1,2 -3,2 -2,0 -2,-2 -2,-4l0 -26c0,-4 1,-6 5,-9l20 -17c1,-1 1,-2 3,-2 2,0 2,2 2,4l0 25c0,6 -1,7 -6,11l-2 2 -1 -3z"/>
  <path id="1" class="fil5" d="M975 -1131c0,-4 0,-7 -4,-7 -4,0 -5,3 -5,7l0 27 -14 9c-1,1 -2,1 -3,1l-3 0c-3,0 -5,0 -6,-2 -1,-1 -1,-4 -1,-6l-1 -29c0,-4 -1,-7 -5,-7 -4,0 -5,4 -5,7l1 30c1,6 1,10 5,13 3,3 6,4 9,4l7 0c2,0 5,-1 8,-3l8 -5 0 1c0,3 1,7 5,7 5,0 4,-5 4,-7l0 -40z"/>
  <path id="2" class="fil5" d="M1041 -1084c3,0 6,-1 6,-5 0,-4 -3,-5 -6,-5l-21 0c-3,0 -5,0 -6,-2l-3 -2c0,-1 -1,-2 -1,-3l0 -3 31 0c6,0 6,-2 6,-7l0 -8c0,-5 0,-9 -5,-12l-3 -4c-4,-3 -6,-3 -11,-3l-9 0c-4,0 -6,0 -10,4l-4 3c-4,3 -5,6 -5,11l0 19c0,5 2,7 5,11l4 3c3,3 5,3 9,3l23 0zm-31 -37c0,-2 1,-3 2,-4l3 -2c2,-1 3,-1 5,-1l8 0c2,0 4,0 5,1l4 3c1,1 1,3 1,4l0 6 -28 0 0 -7z"/>
  <path id="3" class="fil5" d="M1103 -1128c3,0 5,0 6,1 2,2 3,2 4,2 3,0 5,-2 5,-4 0,-3 -2,-4 -3,-6 -4,-3 -6,-3 -12,-3l-16 0c-7,0 -13,5 -13,12 0,6 3,9 8,12l23 10c2,1 5,3 5,5 0,6 -5,5 -8,5l-13 0c-3,0 -6,0 -8,-2 -1,-1 -2,-2 -4,-2 -2,0 -5,3 -5,5 0,3 3,4 5,6 3,3 7,3 12,3l15 0c9,0 15,-5 15,-14 0,-7 -3,-11 -9,-14l-24 -11c-1,-1 -3,-1 -3,-3 0,-3 4,-2 6,-2l14 0z"/>
  <path id="4" class="fil5" d="M1164 -1128l16 0c3,0 6,-1 6,-5 0,-4 -3,-5 -6,-5l-16 0 0 -10c0,-3 -1,-6 -5,-6 -4,0 -5,3 -5,6l0 10 -3 0c-3,0 -7,1 -7,5 0,4 4,5 7,5l3 0 0 26c0,5 0,9 4,13 3,4 7,5 12,5l5 0c5,0 10,-1 13,-5 2,-2 3,-5 3,-8 0,-3 -2,-5 -4,-5 -3,0 -5,2 -5,4 -1,4 -3,4 -7,4l-5 0c-6,0 -6,-3 -6,-8l0 -26z"/>
  <path id="5" class="fil5" d="M1216 -1106c0,4 1,7 3,9l6 6c3,2 6,3 8,3l11 0c3,0 6,-3 8,-5l2 -2 0 13c0,2 -1,3 -2,4l-2 2c-1,2 -3,3 -5,3l-17 0c-4,0 -7,0 -7,4 0,5 4,5 7,5l16 0c5,0 7,0 12,-4l3 -3c4,-3 4,-5 4,-13l0 -47c0,-4 0,-7 -4,-7 -4,0 -5,3 -5,6l0 1 -3 -2c-3,-3 -6,-5 -9,-5l-9 0c-3,0 -4,1 -6,2l-7 6c-2,1 -4,5 -4,10l0 14zm10 -13c0,-2 0,-4 1,-5l4 -4c1,0 2,0 3,0l7 0c1,0 3,1 4,2l8 6c1,1 1,2 1,3l0 7c0,2 0,3 -1,4l-8 6c-1,1 -3,2 -4,2l-7 0c-1,0 -2,0 -3,-1l-4 -3c-1,-1 -1,-3 -1,-5l0 -12z"/>
  <path id="6" class="fil5" d="M1329 -1084c3,0 6,-1 6,-5 0,-4 -3,-5 -6,-5l-21 0c-3,0 -5,0 -6,-2l-3 -2c0,-1 -1,-2 -1,-3l0 -3 31 0c6,0 6,-2 6,-7l0 -8c0,-5 0,-9 -5,-12l-3 -4c-4,-3 -6,-3 -11,-3l-9 0c-4,0 -6,0 -10,4l-4 3c-4,3 -5,6 -5,11l0 19c0,5 2,7 5,11l4 3c3,3 5,3 9,3l23 0zm-31 -37c0,-2 1,-3 2,-4l3 -2c2,-1 3,-1 5,-1l8 0c2,0 4,0 5,1l4 3c1,1 1,3 1,4l0 6 -28 0 0 -7z"/>
  <path id="7" class="fil5" d="M1384 -1128c1,0 2,0 3,0l3 0c6,0 7,2 7,8l1 29c0,4 1,7 5,7 4,0 5,-4 4,-7l-1 -31c0,-5 0,-9 -4,-13 -3,-2 -5,-3 -9,-3l-7 0c-3,0 -6,2 -8,3l-8 5 0 0 0 -1c0,-3 0,-7 -5,-7 -4,0 -5,4 -5,7l0 40c0,4 1,7 5,7 4,0 5,-3 5,-7l0 -28 14 -9z"/>
  <path class="fil5" d="M1085 135l11 0c4,0 7,-1 7,-5 0,-3 -2,-5 -5,-5l-6 0 -3 -6 6 -5c6,-5 8,-10 8,-17l0 -27c0,-7 -5,-13 -13,-13 -3,0 -5,2 -8,4l-20 18c-6,4 -8,9 -8,16l0 26c0,4 0,7 3,10 2,3 5,4 9,4 4,0 6,-1 9,-4l6 -5 4 9zm-1 -29c-1,-3 -2,-6 -6,-6 -2,0 -5,2 -5,5 0,1 1,3 2,4l2 7 -8 7c-1,1 -2,2 -3,2 -3,0 -2,-2 -2,-4l0 -26c0,-4 1,-6 4,-9l20 -17c1,-1 2,-2 3,-2 2,0 2,2 2,4l0 25c0,6 -1,7 -5,11l-3 2 -1 -3z"/>
  <path id="1" class="fil5" d="M1174 88c0,-4 -1,-7 -5,-7 -4,0 -5,3 -5,7l0 27 -14 9c-1,1 -2,1 -3,1l-3 0c-2,0 -5,0 -6,-2 -1,-1 -1,-4 -1,-6l-1 -29c0,-4 0,-7 -4,-7 -5,0 -5,4 -5,7l1 30c0,6 0,10 4,13 3,3 6,4 9,4l7 0c3,0 5,-1 8,-3l8 -5 0 1c0,3 1,7 5,7 5,0 5,-5 5,-7l0 -40z"/>
  <path id="2" class="fil5" d="M1239 135c3,0 7,-1 7,-5 0,-4 -4,-5 -7,-5l-20 0c-4,0 -6,0 -7,-2l-2 -2c-1,-1 -2,-2 -2,-3l0 -3 31 0c6,0 7,-2 7,-7l0 -8c0,-5 -1,-9 -5,-12l-4 -4c-4,-3 -6,-3 -11,-3l-9 0c-3,0 -6,0 -10,4l-4 3c-4,3 -4,6 -4,11l0 19c0,5 1,7 5,11l4 3c3,3 4,3 8,3l23 0zm-31 -37c0,-2 1,-3 2,-4l4 -2c1,-1 3,-1 5,-1l8 0c1,0 3,0 4,1l4 3c1,1 1,3 1,4l0 6 -28 0 0 -7z"/>
  <path id="3" class="fil5" d="M1302 91c2,0 4,0 6,1 1,2 2,2 4,2 2,0 5,-2 5,-4 0,-3 -2,-4 -4,-6 -4,-3 -6,-3 -11,-3l-17 0c-7,0 -13,5 -13,12 0,6 3,9 9,12l22 10c2,1 5,3 5,5 0,6 -4,5 -8,5l-13 0c-3,0 -6,0 -8,-2 -1,-1 -2,-2 -3,-2 -3,0 -5,3 -5,5 0,3 2,4 4,6 4,3 7,3 12,3l15 0c9,0 16,-5 16,-14 0,-7 -3,-11 -10,-14l-24 -11c-1,-1 -2,-1 -2,-3 0,-3 3,-2 5,-2l15 0z"/>
  <path id="4" class="fil5" d="M1362 91l16 0c3,0 7,-1 7,-5 0,-4 -4,-5 -7,-5l-16 0 0 -10c0,-3 -1,-6 -5,-6 -4,0 -5,3 -5,6l0 10 -3 0c-3,0 -6,1 -6,5 0,4 4,5 6,5l3 0 0 26c0,5 0,9 4,13 3,4 8,5 12,5l5 0c5,0 10,-1 13,-5 2,-2 4,-5 4,-8 0,-3 -2,-5 -5,-5 -3,0 -4,2 -5,4 -1,4 -3,4 -7,4l-5 0c-6,0 -6,-3 -6,-8l0 -26z"/>
  <path id="5" class="fil5" d="M1415 113c0,4 0,7 3,9l6 6c3,2 5,3 7,3l11 0c3,0 6,-3 8,-5l2 -2 0 13c0,2 0,3 -1,4l-3 2c-1,2 -2,3 -4,3l-18 0c-3,0 -7,0 -7,4 0,5 4,5 7,5l16 0c5,0 8,0 12,-4l3 -3c4,-3 5,-5 5,-13l0 -47c0,-4 -1,-7 -5,-7 -3,0 -5,3 -5,6l0 1 -2 -2c-4,-3 -7,-5 -10,-5l-9 0c-2,0 -4,1 -6,2l-7 6c-2,1 -3,5 -3,10l0 14zm9 -13c0,-2 0,-4 2,-5l4 -4c0,0 1,0 2,0l7 0c2,0 3,1 5,2l7 6c1,1 1,2 1,3l0 7c0,2 0,3 -1,4l-7 6c-2,1 -3,2 -5,2l-7 0c-1,0 -2,0 -2,-1l-4 -3c-2,-1 -2,-3 -2,-5l0 -12z"/>
  <path id="6" class="fil5" d="M1527 135c3,0 7,-1 7,-5 0,-4 -4,-5 -7,-5l-20 0c-4,0 -6,0 -7,-2l-2 -2c-1,-1 -2,-2 -2,-3l0 -3 31 0c6,0 7,-2 7,-7l0 -8c0,-5 -1,-9 -5,-12l-4 -4c-4,-3 -6,-3 -11,-3l-9 0c-3,0 -6,0 -10,4l-4 3c-4,3 -4,6 -4,11l0 19c0,5 1,7 5,11l4 3c3,3 4,3 8,3l23 0zm-31 -37c0,-2 1,-3 2,-4l4 -2c1,-1 3,-1 5,-1l8 0c1,0 3,0 4,1l4 3c1,1 1,3 1,4l0 6 -28 0 0 -7z"/>
  <path id="7" class="fil5" d="M1583 91c1,0 2,0 3,0l3 0c6,0 6,2 6,8l1 29c0,4 1,7 5,7 4,0 5,-4 5,-7l-1 -31c0,-5 0,-9 -5,-13 -2,-2 -5,-3 -8,-3l-8 0c-3,0 -5,2 -8,3l-8 5 0 0 0 -1c0,-3 0,-7 -4,-7 -5,0 -5,4 -5,7l0 40c0,4 0,7 5,7 4,0 4,-3 4,-7l0 -28 15 -9z"/>
 </g>
</svg>
