<?xml version="1.0" encoding="UTF-8"?>
<!DOCTYPE svg PUBLIC "-//W3C//DTD SVG 1.1//EN" "http://www.w3.org/Graphics/SVG/1.1/DTD/svg11.dtd">
<!-- Creator: CorelDRAW X7 -->
<svg xmlns="http://www.w3.org/2000/svg" xml:space="preserve" width="1800px" height="1200px" version="1.1" style="shape-rendering:geometricPrecision; text-rendering:geometricPrecision; image-rendering:optimizeQuality; fill-rule:evenodd; clip-rule:evenodd"
viewBox="0 0 1800 1200"
 xmlns:xlink="http://www.w3.org/1999/xlink">
 <defs>
  <style type="text/css">
   <![CDATA[
    .str0 {stroke:#373435;stroke-width:2.08346}
    .fil0 {fill:none}
    .fil1 {fill:#444445}
    .fil2 {fill:#373737}
    .fil3 {fill:#2E2D2E}
   ]]>
  </style>
   <clipPath id="id0">
    <path d="M-2 -7l1807 0 0 1200 -1807 0 0 -1200z"/>
   </clipPath>
 </defs>
 <g id="Layer_x0020_1">
  <metadata id="CorelCorpID_0Corel-Layer"/>
  <line class="fil0 str0" x1="-221" y1="-105" x2="-221" y2= "-105" />
 </g>
 <g id="Layer_x0020_2">
  <metadata id="CorelCorpID_1Corel-Layer"/>
  <polygon class="fil1" points="-2,-7 1805,-7 1805,1193 -2,1193 "/>
  <g style="clip-path:url(#id0)">
   <g id="_2920567933952">
    <rect class="fil2" transform="matrix(9.97521 -3.25848 -8.46101 -3.84163 210.28 1184.98)" width="111" height="90.2504"/>
    <rect class="fil3" transform="matrix(9.97521 -3.25848 -8.46101 -3.84163 210.28 1091)" width="111" height="90.2504"/>
    <rect class="fil2" transform="matrix(9.97521 -3.25848 -8.46101 -3.84163 210.28 997.014)" width="111" height="90.2504"/>
    <rect class="fil3" transform="matrix(9.97521 -3.25848 -8.46101 -3.84163 210.28 894.485)" width="111" height="90.2504"/>
    <rect class="fil2" transform="matrix(9.97521 -3.25848 -8.46101 -3.84163 210.28 809.045)" width="111" height="90.2504"/>
    <rect class="fil3" transform="matrix(9.97521 -3.25848 -8.46101 -3.84163 210.28 706.517)" width="111" height="90.2504"/>
    <rect class="fil2" transform="matrix(9.97521 -3.25848 -8.46101 -3.84163 210.28 603.989)" width="111" height="90.2504"/>
    <rect class="fil3" transform="matrix(9.97521 -3.25848 -8.46101 -3.84163 210.28 501.46)" width="111" height="90.2504"/>
   </g>
  </g>
  <polygon class="fil0" points="-2,-7 1805,-7 1805,1193 -2,1193 "/>
 </g>
</svg>
